<?xml version="1.0" encoding="utf-8"?>
<!-- Generator: Adobe Illustrator 16.0.0, SVG Export Plug-In . SVG Version: 6.00 Build 0)  -->
<!DOCTYPE svg PUBLIC "-//W3C//DTD SVG 1.1//EN" "http://www.w3.org/Graphics/SVG/1.1/DTD/svg11.dtd">
<svg version="1.1" id="Capa_1" xmlns="http://www.w3.org/2000/svg" xmlns:xlink="http://www.w3.org/1999/xlink" x="0px" y="0px"
	 width="40px" height="40px" viewBox="238.188 238.188 40 40" enable-background="new 238.188 238.188 40 40" xml:space="preserve">
<g>
	<g>
		<rect x="247.788" y="250.188" fill="#FFFFFF" width="20.8" height="1.6"/>
		<rect x="247.788" y="245.388" fill="#FFFFFF" width="20.8" height="1.6"/>
		<rect x="247.788" y="254.988" fill="#FFFFFF" width="20.8" height="1.6"/>
		<path fill="#FFFFFF" d="M273.388,247.627v-5.44c0-1.76-1.44-3.2-3.2-3.2h-3.656h-2.903h-2.4h-6.24h-2.24h-2.341h-4.219
			c-1.76,0-3.2,1.44-3.2,3.2v5.44l-4.8,4.16v22.4c0,1.76,1.44,3.199,3.2,3.199h33.6c1.76,0,3.2-1.439,3.2-3.199v-22.4
			L273.388,247.627z M273.388,249.708l2.399,2.08l-2.399,2.08V249.708z M244.587,242.188c0-0.96,0.64-1.6,1.6-1.6h24
			c0.8,0,1.6,0.8,1.6,1.6v12.96l-5.119,4.64h-16.96l-5.12-4.479V242.188z M264.747,261.387l-3.359,3.201h-2.72h-2.72h-0.96
			l-3.52-3.201H264.747z M242.987,249.708v4.32l-2.4-2.24L242.987,249.708z M240.268,275.307c-0.32-0.318-0.48-0.639-0.48-1.119
			v-10.4v-10.399l12.8,11.2L240.268,275.307z M242.188,275.787l11.2-9.6h9.6l11.2,9.6H242.188z M276.588,263.787v10.4
			c0,0.48-0.16,0.801-0.48,1.119l-12.32-10.719l12.801-11.2V263.787z"/>
	</g>
</g>
</svg>
